<svg width="255" height="399" viewBox="0 0 255 399" fill="none" xmlns="http://www.w3.org/2000/svg">
<path d="M33 0H0V250.5L33 217.5V0Z" fill="white" fill-opacity="0.9"/>
<path d="M96 0H63L64 186L96 154V0Z" fill="white" fill-opacity="0.9"/>
<path d="M96 201.5L3 295L13.5 326.5L63.5 279C63.5 290.5 81 334 129 334C177 334 191 284.5 191 279V164L158 131V279C158 286.5 148.2 301 129 301C109.8 301 96 288 96 279V201.5Z" fill="white" fill-opacity="0.9"/>
<path d="M59 337L35.5 359.5C47 373 76.5 398.5 125.5 398.5C201.126 398.5 237.5 345.5 248.5 310L222.5 284.5C209.5 341.5 166 366 125.5 366C96 366 67 348 59 337Z" fill="white" fill-opacity="0.9"/>
<path d="M255 272L221.5 236V148L158 85V0H191V74.5L255 137.5V272Z" fill="white" fill-opacity="0.9"/>
<path d="M221.5 57.5L255 91.5V0H221.5V57.5Z" fill="white" fill-opacity="0.9"/>
</svg>
